<?xml version="1.0" encoding="iso-8859-1"?>
<!-- Generator: Adobe Illustrator 19.0.0, SVG Export Plug-In . SVG Version: 6.00 Build 0)  -->
<svg version="1.1" id="Layer_1" xmlns="http://www.w3.org/2000/svg" xmlns:xlink="http://www.w3.org/1999/xlink" x="0px" y="0px"
	 viewBox="0 0 512 512" style="enable-background:new 0 0 512 512;" xml:space="preserve">
<path d="M357.944,512H152.776c-21.864-0.064-39.568-17.768-39.632-39.632V39.632C113.2,17.768,130.912,0.064,152.776,0h205.168
	c21.864,0.064,39.568,17.768,39.632,39.632v432.736C397.504,494.224,379.8,511.928,357.944,512z"/>
<rect x="131.904" y="40.4" style="fill:#FFFFFF;" width="246.912" height="403.76"/>
<g>
	<path style="fill:#CCCCCC;" d="M292.392,24.424h-50.528c-2.28-0.008-4.12-1.848-4.128-4.128l0,0c0.008-2.28,1.848-4.12,4.128-4.128
		h50.528c2.28,0.008,4.12,1.848,4.128,4.128l0,0C296.512,22.576,294.664,24.416,292.392,24.424z"/>
	<circle style="fill:#CCCCCC;" cx="218.32" cy="20.296" r="4.128"/>
	<path style="fill:#CCCCCC;" d="M255.36,497.6c-10.784,0-19.52-8.736-19.52-19.52s8.736-19.52,19.52-19.52s19.52,8.736,19.52,19.52
		l0,0C274.864,488.856,266.128,497.584,255.36,497.6z M255.36,462.552c-8.568,0-15.52,6.952-15.52,15.52s6.952,15.52,15.52,15.52
		s15.52-6.952,15.52-15.52l0,0c0.008-8.584-6.936-15.544-15.52-15.552l0,0V462.552z"/>
</g>
<path style="fill:#2D2D2D;" d="M295.784,124.288h-10.488V100.8c-0.016-2.888-2.36-5.216-5.248-5.208h-49.392
	c-2.888-0.008-5.232,2.32-5.248,5.208v23.504H214.92V100.8c0.04-8.656,7.08-15.648,15.736-15.624h49.392
	c8.656-0.024,15.696,6.968,15.736,15.624V124.288z"/>
<path style="fill:#E21B1B;" d="M195,118.184L171.432,231.2H339.28l-23.576-113.04L195,118.184z"/>
<path style="fill:#FFFFFF;" d="M230,158.112c-5.024-0.032-9.08-4.128-9.048-9.16s4.128-9.08,9.16-9.048
	c5.008,0.032,9.048,4.096,9.048,9.104c-0.016,5.04-4.112,9.12-9.152,9.104C230.008,158.112,230.008,158.112,230,158.112z
	 M280.712,158.112c-5.024-0.032-9.08-4.128-9.048-9.16c0.032-5.024,4.128-9.08,9.16-9.048c5.008,0.032,9.048,4.096,9.048,9.104
	c-0.016,5.04-4.112,9.12-9.152,9.104H280.712L280.712,158.112z"/>
<circle style="fill:#999999;" cx="397.568" cy="308.728" r="76.448"/>
<path style="fill:#FFFFFF;" d="M393.904,350.672V340.4c-6.024-0.064-11.936-1.672-17.168-4.664l2.856-9.96
	c5.024,2.96,10.728,4.552,16.56,4.624c6.672,0,11.2-3.288,11.2-8.368c0-4.8-3.704-7.84-11.544-10.704
	c-11.128-4-18.328-9.12-18.328-18.968c0.232-9.488,7.608-17.248,17.072-17.96V264h8.688v9.856
	c5.072,0.056,10.072,1.248,14.624,3.496l-2.856,9.752c-4.448-2.328-9.384-3.56-14.4-3.6c-7.416,0-10.064,3.816-10.064,7.416
	c0,4.344,3.816,6.784,12.8,10.4c11.864,4.456,17.168,10.168,17.168,19.6c-0.208,9.96-7.968,18.128-17.904,18.856v10.912
	L393.904,350.672z"/>
<circle style="fill:#E21B1B;" cx="95.504" cy="124.288" r="57.52"/>
<path style="fill:#FFFFFF;" d="M92.744,155.856v-7.728c-4.528-0.056-8.976-1.256-12.912-3.504l2.16-7.496
	c3.768,2.232,8.056,3.44,12.432,3.504c5.024,0,8.456-2.48,8.456-6.296c0-3.592-2.792-5.896-8.688-8.056
	c-8.376-3.032-13.792-6.848-13.792-14.264c0.152-7.136,5.688-12.992,12.8-13.552v-7.816h6.536v7.416
	c3.816,0.048,7.576,0.944,11,2.632l-2.152,7.336c-3.344-1.76-7.064-2.688-10.84-2.712c-5.6,0-7.568,2.864-7.568,5.6
	c0,3.264,2.864,5.104,9.64,7.816c8.928,3.344,12.912,7.648,12.912,14.744c-0.16,7.496-5.992,13.648-13.472,14.192v8.2
	L92.744,155.856z"/>
<circle cx="222.448" cy="356.92" r="57.52"/>
<path style="fill:#FFFFFF;" d="M219.696,388.48v-7.728c-4.528-0.056-8.976-1.256-12.912-3.504l2.16-7.496
	c3.768,2.232,8.056,3.44,12.432,3.504c5.024,0,8.456-2.48,8.456-6.296c0-3.592-2.792-5.896-8.688-8.056
	c-8.384-3.024-13.784-6.848-13.784-14.264c0.152-7.136,5.688-12.992,12.8-13.552v-7.816h6.536v7.416
	c3.816,0.048,7.576,0.944,11,2.632l-2.152,7.336c-3.344-1.76-7.064-2.688-10.84-2.712c-5.6,0-7.568,2.864-7.568,5.6
	c0,3.264,2.864,5.104,9.64,7.816c8.928,3.344,12.912,7.648,12.912,14.744c-0.16,7.496-5.992,13.648-13.472,14.192v8.184
	L219.696,388.48L219.696,388.48z"/>
<g>
</g>
<g>
</g>
<g>
</g>
<g>
</g>
<g>
</g>
<g>
</g>
<g>
</g>
<g>
</g>
<g>
</g>
<g>
</g>
<g>
</g>
<g>
</g>
<g>
</g>
<g>
</g>
<g>
</g>
</svg>
