<?xml version="1.0" encoding="iso-8859-1"?>
<!-- Generator: Adobe Illustrator 19.0.0, SVG Export Plug-In . SVG Version: 6.00 Build 0)  -->
<svg version="1.1" id="Layer_1" xmlns="http://www.w3.org/2000/svg" xmlns:xlink="http://www.w3.org/1999/xlink" x="0px" y="0px"
	 viewBox="0 0 512 512" style="enable-background:new 0 0 512 512;" xml:space="preserve">
<path d="M355,512H157c-35.2,0-64-28.8-64-64V64c0-35.2,28.8-64,64-64h198c35.2,0,64,28.8,64,64v384C419,483.2,390.216,512,355,512z"
	/>
<rect x="118.008" y="60.416" style="fill:#F2B851;" width="280" height="376.912"/>
<g>
	<circle style="fill:#FFFFFF;" cx="300.328" cy="321.76" r="22.496"/>
	<circle style="fill:#FFFFFF;" cx="232.488" cy="321.76" r="22.496"/>
	<polygon style="fill:#FFFFFF;" points="213.544,207.84 199.272,165.6 162.568,165.6 162.568,149.6 210.744,149.6 228.696,202.72 	
		"/>
</g>
<polygon style="fill:#E04F5F;" points="187.256,197.344 349.448,197.344 318.52,284.08 214.264,284.08 "/>
<rect x="118.008" y="422.784" width="280" height="61.216"/>
<rect x="118.008" y="24.784" width="280" height="35.632"/>
<g>
	<path style="fill:#FFFFFF;" d="M288.36,483.488h-64c-8.848,0-16-7.152-16-16s7.152-16,16-16h64c8.848,0,16,7.152,16,16
		S297.208,483.488,288.36,483.488z"/>
	<circle style="fill:#FFFFFF;" cx="256.008" cy="30.176" r="12"/>
</g>
<g>
</g>
<g>
</g>
<g>
</g>
<g>
</g>
<g>
</g>
<g>
</g>
<g>
</g>
<g>
</g>
<g>
</g>
<g>
</g>
<g>
</g>
<g>
</g>
<g>
</g>
<g>
</g>
<g>
</g>
</svg>
